ply
format ascii 1.0
comment Created by Blender 3.3.1 - www.blender.org
element vertex 361
property float x
property float y
property float z
element face 672
property list uchar uint vertex_indices
end_header
0.753807 0.134135 0.052208
0.760152 0.140097 0.030272
0.695180 0.157320 0.032468
0.689815 0.151069 0.054049
0.760126 0.144106 0.016584
0.695079 0.161025 0.018635
0.590635 0.157989 0.021929
0.590861 0.155526 0.035993
0.587067 0.149562 0.057006
-0.029947 0.124468 0.151750
-0.026067 0.133307 0.119731
-0.163240 0.122743 0.134648
-0.168426 0.111238 0.175463
-0.025533 0.130123 0.085896
-0.161336 0.119066 0.095082
-0.290518 0.116131 0.095387
-0.292470 0.119694 0.138259
-0.296696 0.106096 0.186842
0.291465 0.143382 0.076075
0.291995 0.149056 0.055013
0.129299 0.142264 0.087269
0.127505 0.135436 0.112478
0.291555 0.147924 0.037795
0.129111 0.139889 0.062223
-0.735770 0.117803 0.184149
-0.683914 0.092255 0.259940
-0.622551 0.106057 0.257176
-0.655992 0.137194 0.184816
-0.636375 0.056793 0.312180
-0.590046 0.056394 0.324083
-0.522727 0.039828 0.323323
-0.533009 0.097424 0.257964
-0.544688 0.135095 0.186896
-0.310542 0.065393 0.250701
-0.183552 0.076723 0.225153
-0.324575 0.004162 0.307832
-0.198624 0.022854 0.267607
-0.052759 0.053911 0.216351
-0.041367 0.098256 0.187425
0.121695 0.116173 0.142868
0.115831 0.079049 0.168934
0.286216 0.097157 0.134233
0.288902 0.129179 0.106165
0.443522 0.135978 0.092002
0.449468 0.147545 0.060966
0.437467 0.107120 0.121127
0.563226 0.112350 0.119078
0.575178 0.139260 0.089435
-0.753570 0.126350 0.127021
-0.781694 0.077291 0.126194
-0.762362 0.069042 0.186171
-0.754341 0.126214 0.081270
-0.781694 0.077291 0.080336
-0.778838 0.030069 0.080163
-0.778840 0.029961 0.125501
-0.759832 0.021127 0.187247
-0.433423 0.016118 0.322155
-0.435661 -0.059739 0.355932
-0.329362 -0.071020 0.336230
-0.519954 -0.032687 0.360106
-0.520943 -0.093568 0.373588
-0.436672 -0.122599 0.366728
-0.330130 -0.133214 0.343330
0.705645 0.106495 0.108973
0.657133 0.116255 0.117548
0.651682 0.061713 0.128818
0.715924 0.066915 0.116883
0.559242 0.056564 0.131736
0.558316 0.003703 0.131539
0.650535 0.009731 0.126989
0.714455 0.015193 0.114290
-0.704368 0.044294 0.269839
-0.634525 0.014301 0.340895
-0.702562 -0.005089 0.277607
-0.633693 -0.037853 0.355147
-0.203648 -0.046715 0.286716
-0.056556 -0.009326 0.228119
-0.204374 -0.105203 0.288867
-0.057266 -0.064158 0.227073
0.113876 0.018642 0.181171
0.285321 0.038027 0.149227
0.113334 -0.035672 0.181684
0.284878 -0.016743 0.152077
0.734717 0.125793 0.086323
0.755127 0.073971 0.085925
0.775138 0.080831 0.051594
0.753056 0.021568 0.083749
0.772491 0.027197 0.050320
-0.669197 0.147696 0.129503
-0.672284 0.147152 0.084071
-0.551651 0.147837 0.132982
-0.555832 0.146519 0.088025
0.760108 0.146590 0.007213
0.695005 0.162744 0.008415
0.760100 0.147451 -0.000000
0.694975 0.163107 -0.000000
0.590395 0.157023 -0.000000
0.590466 0.157789 0.010344
-0.024151 0.120266 0.044770
-0.156059 0.108035 0.049136
-0.023248 0.113669 -0.000000
-0.152576 0.100681 -0.000000
-0.278715 0.098155 -0.000000
-0.283495 0.105350 0.048657
0.291208 0.141711 0.019233
0.128973 0.131542 0.032325
0.291058 0.137334 -0.000000
0.128916 0.125876 -0.000000
-0.755113 0.125714 0.039612
-0.781694 0.077291 0.039030
-0.755499 0.125373 -0.000000
-0.781694 0.077291 -0.000000
-0.779257 0.030105 -0.000000
-0.779077 0.030105 0.039030
0.781809 0.085446 0.029540
0.781809 0.088439 0.015900
0.778914 0.030423 0.028956
0.778901 0.032159 0.015754
-0.425297 0.130730 0.092416
-0.423203 0.122711 0.046572
-0.559166 0.142013 0.043823
-0.421310 0.117335 -0.000000
-0.560622 0.138964 -0.000000
-0.428017 0.078081 0.258722
-0.423520 0.119388 0.189112
-0.579647 -0.009684 0.363039
-0.579885 -0.066333 0.378434
-0.424008 0.133280 0.136803
-0.770269 0.014232 0.079643
-0.770277 0.013802 0.123421
-0.758844 0.014089 0.078950
-0.758860 0.013228 0.120649
-0.742116 0.002957 0.177943
-0.752239 0.004276 0.183741
-0.521948 -0.116262 0.369040
-0.438395 -0.145570 0.361221
-0.522960 -0.119861 0.355477
-0.440475 -0.148597 0.347561
-0.334686 -0.157779 0.322874
-0.332106 -0.155478 0.336568
0.283549 -0.035686 0.143713
0.432923 -0.022986 0.129170
0.434818 -0.004370 0.137632
0.281778 -0.036716 0.129742
0.430398 -0.023890 0.115483
0.551831 -0.015204 0.109331
0.555537 -0.014432 0.122616
-0.697145 -0.023153 0.273977
-0.689923 -0.025559 0.264649
-0.627053 -0.060851 0.339516
-0.630870 -0.057483 0.351745
-0.206552 -0.125832 0.280449
-0.209455 -0.127530 0.266747
-0.062231 -0.084572 0.203802
-0.059393 -0.083290 0.217555
0.111709 -0.054515 0.172576
0.109541 -0.055622 0.158658
0.770177 0.013401 0.015316
0.770673 0.014287 0.006812
0.779025 0.033318 0.006812
0.758545 0.013404 0.014733
0.759537 0.014298 0.006812
0.760308 0.014637 -0.000000
0.771058 0.014621 -0.000000
0.779121 0.033753 -0.000000
0.710047 -0.002406 0.105565
0.746843 0.003903 0.077221
0.704170 -0.002943 0.093775
0.738559 0.003608 0.068517
0.753958 0.009196 0.041402
0.764548 0.009270 0.046498
0.770231 0.012082 0.027204
0.758653 0.012082 0.024868
-0.579288 -0.087709 0.374657
-0.578275 -0.091449 0.361294
0.450762 0.153790 0.026339
0.451157 0.153124 0.040715
0.673489 0.141710 0.087517
0.435449 0.049668 0.135644
0.642508 -0.008718 0.104737
0.647095 -0.008045 0.117722
-0.675370 0.145151 0.041356
-0.676913 0.143787 -0.000000
0.781809 0.090433 0.006812
0.781809 0.091181 -0.000000
-0.762197 0.014376 -0.000000
-0.760758 0.014376 0.039030
-0.771226 0.014376 0.039030
-0.771946 0.014376 -0.000000
0.450453 0.150619 0.012928
0.450320 0.148075 -0.000000
0.753807 0.134135 -0.052208
0.689815 0.151069 -0.054049
0.695180 0.157320 -0.032468
0.760152 0.140097 -0.030272
0.587067 0.149562 -0.057006
0.590861 0.155526 -0.035993
0.590635 0.157989 -0.021929
0.695079 0.161025 -0.018635
0.760126 0.144106 -0.016584
-0.029947 0.124468 -0.151750
-0.168426 0.111238 -0.175463
-0.163240 0.122743 -0.134648
-0.026067 0.133308 -0.119731
-0.296696 0.106096 -0.186842
-0.292470 0.119694 -0.138259
-0.290518 0.116131 -0.095387
-0.161336 0.119066 -0.095082
-0.025533 0.130123 -0.085896
0.291465 0.143382 -0.076075
0.127505 0.135436 -0.112478
0.129299 0.142264 -0.087269
0.291995 0.149056 -0.055013
0.129111 0.139889 -0.062223
0.291555 0.147924 -0.037795
-0.735770 0.117803 -0.184149
-0.655991 0.137194 -0.184816
-0.622551 0.106057 -0.257176
-0.683914 0.092255 -0.259940
-0.544688 0.135095 -0.186896
-0.533009 0.097424 -0.257964
-0.522727 0.039828 -0.323323
-0.590046 0.056394 -0.324083
-0.636375 0.056793 -0.312180
-0.183552 0.076723 -0.225153
-0.310542 0.065393 -0.250701
-0.041367 0.098256 -0.187425
-0.052759 0.053911 -0.216351
-0.198624 0.022854 -0.267607
-0.324575 0.004162 -0.307832
0.121695 0.116173 -0.142868
0.288902 0.129179 -0.106165
0.286216 0.097157 -0.134233
0.115831 0.079049 -0.168934
0.449468 0.147545 -0.060966
0.443522 0.135978 -0.092002
0.575178 0.139260 -0.089435
0.563226 0.112350 -0.119078
0.437467 0.107120 -0.121127
-0.762362 0.069042 -0.186171
-0.781694 0.077291 -0.126194
-0.753570 0.126350 -0.127021
-0.759832 0.021127 -0.187247
-0.778840 0.029961 -0.125501
-0.778838 0.030069 -0.080163
-0.781694 0.077291 -0.080336
-0.754341 0.126214 -0.081270
-0.329362 -0.071020 -0.336230
-0.435661 -0.059739 -0.355932
-0.433423 0.016118 -0.322155
-0.330130 -0.133214 -0.343330
-0.436672 -0.122599 -0.366728
-0.520943 -0.093568 -0.373588
-0.519954 -0.032687 -0.360106
0.705645 0.106495 -0.108973
0.715924 0.066915 -0.116883
0.651682 0.061713 -0.128818
0.657133 0.116255 -0.117548
0.714455 0.015193 -0.114290
0.650535 0.009731 -0.126989
0.558316 0.003703 -0.131539
0.559242 0.056564 -0.131736
-0.634525 0.014301 -0.340895
-0.704368 0.044294 -0.269839
-0.633693 -0.037853 -0.355147
-0.702562 -0.005089 -0.277607
-0.056556 -0.009326 -0.228119
-0.203648 -0.046715 -0.286716
-0.057266 -0.064158 -0.227073
-0.204374 -0.105203 -0.288867
0.285321 0.038027 -0.149227
0.113876 0.018642 -0.181171
0.284878 -0.016743 -0.152077
0.113334 -0.035672 -0.181684
0.775138 0.080831 -0.051594
0.755127 0.073971 -0.085925
0.734717 0.125793 -0.086323
0.772491 0.027197 -0.050320
0.753056 0.021568 -0.083749
-0.672284 0.147152 -0.084071
-0.669196 0.147696 -0.129503
-0.555832 0.146519 -0.088025
-0.551651 0.147837 -0.132982
0.695005 0.162744 -0.008415
0.760108 0.146590 -0.007213
0.590466 0.157789 -0.010344
-0.156059 0.108035 -0.049136
-0.024151 0.120266 -0.044770
-0.283495 0.105350 -0.048657
0.128973 0.131542 -0.032325
0.291208 0.141711 -0.019233
-0.781694 0.077291 -0.039030
-0.755113 0.125714 -0.039612
-0.779077 0.030105 -0.039030
0.781809 0.088439 -0.015900
0.781809 0.085446 -0.029540
0.778901 0.032159 -0.015754
0.778914 0.030423 -0.028956
-0.559166 0.142013 -0.043823
-0.423203 0.122711 -0.046572
-0.425297 0.130730 -0.092416
-0.428017 0.078081 -0.258722
-0.423520 0.119388 -0.189112
-0.579647 -0.009684 -0.363039
-0.579885 -0.066333 -0.378434
-0.424008 0.133280 -0.136803
-0.770277 0.013802 -0.123421
-0.770269 0.014232 -0.079643
-0.752239 0.004276 -0.183741
-0.742116 0.002957 -0.177943
-0.758860 0.013228 -0.120649
-0.758844 0.014089 -0.078950
-0.438395 -0.145570 -0.361221
-0.521948 -0.116262 -0.369040
-0.332106 -0.155478 -0.336568
-0.334686 -0.157779 -0.322874
-0.440475 -0.148597 -0.347561
-0.522960 -0.119861 -0.355477
0.434818 -0.004370 -0.137632
0.432923 -0.022986 -0.129170
0.283549 -0.035686 -0.143713
0.555537 -0.014432 -0.122616
0.551831 -0.015204 -0.109331
0.430398 -0.023890 -0.115483
0.281778 -0.036716 -0.129742
-0.697145 -0.023153 -0.273977
-0.630870 -0.057483 -0.351745
-0.627053 -0.060851 -0.339516
-0.689923 -0.025559 -0.264649
-0.206552 -0.125832 -0.280449
-0.059393 -0.083290 -0.217555
-0.062231 -0.084572 -0.203802
-0.209455 -0.127530 -0.266747
0.111709 -0.054515 -0.172576
0.109541 -0.055622 -0.158658
0.779025 0.033318 -0.006812
0.770673 0.014287 -0.006812
0.770177 0.013401 -0.015316
0.759537 0.014298 -0.006812
0.758545 0.013404 -0.014733
0.746843 0.003903 -0.077221
0.710047 -0.002406 -0.105565
0.764548 0.009270 -0.046498
0.753958 0.009196 -0.041402
0.738559 0.003608 -0.068517
0.704170 -0.002943 -0.093775
0.770231 0.012082 -0.027204
0.758653 0.012082 -0.024868
-0.579288 -0.087709 -0.374657
-0.578275 -0.091449 -0.361294
0.451157 0.153124 -0.040715
0.450762 0.153790 -0.026339
0.673489 0.141710 -0.087517
0.435449 0.049668 -0.135644
0.647095 -0.008045 -0.117722
0.642508 -0.008718 -0.104737
-0.675370 0.145151 -0.041356
0.781809 0.090433 -0.006812
-0.771226 0.014376 -0.039030
-0.760758 0.014376 -0.039030
0.450453 0.150619 -0.012928
3 0 1 2
3 2 3 0
3 1 4 5
3 5 2 1
3 6 7 2
3 2 5 6
3 7 8 3
3 3 2 7
3 9 10 11
3 11 12 9
3 10 13 14
3 14 11 10
3 15 16 11
3 11 14 15
3 16 17 12
3 12 11 16
3 18 19 20
3 20 21 18
3 19 22 23
3 23 20 19
3 13 10 20
3 20 23 13
3 10 9 21
3 21 20 10
3 24 25 26
3 26 27 24
3 25 28 29
3 29 26 25
3 30 31 26
3 26 29 30
3 31 32 27
3 27 26 31
3 17 33 34
3 34 12 17
3 33 35 36
3 36 34 33
3 37 38 34
3 34 36 37
3 38 9 12
3 12 34 38
3 9 38 39
3 39 21 9
3 38 37 40
3 40 39 38
3 41 42 39
3 39 40 41
3 42 18 21
3 21 39 42
3 18 42 43
3 43 44 18
3 42 41 45
3 45 43 42
3 46 47 43
3 43 45 46
3 47 8 44
3 44 43 47
3 24 48 49
3 49 50 24
3 48 51 52
3 52 49 48
3 53 54 49
3 49 52 53
3 54 55 50
3 50 49 54
3 35 56 57
3 57 58 35
3 56 30 59
3 59 57 56
3 60 61 57
3 57 59 60
3 61 62 58
3 58 57 61
3 63 64 65
3 65 66 63
3 64 46 67
3 67 65 64
3 68 69 65
3 65 67 68
3 69 70 66
3 66 65 69
3 28 25 71
3 71 72 28
3 25 24 50
3 50 71 25
3 55 73 71
3 71 50 55
3 73 74 72
3 72 71 73
3 37 36 75
3 75 76 37
3 36 35 58
3 58 75 36
3 62 77 75
3 75 58 62
3 77 78 76
3 76 75 77
3 41 40 79
3 79 80 41
3 40 37 76
3 76 79 40
3 78 81 79
3 79 76 78
3 81 82 80
3 80 79 81
3 0 83 84
3 84 85 0
3 83 63 66
3 66 84 83
3 70 86 84
3 84 66 70
3 86 87 85
3 85 84 86
3 51 48 88
3 88 89 51
3 48 24 27
3 27 88 48
3 32 90 88
3 88 27 32
3 90 91 89
3 89 88 90
3 4 92 93
3 93 5 4
3 92 94 95
3 95 93 92
3 96 97 93
3 93 95 96
3 97 6 5
3 5 93 97
3 13 98 99
3 99 14 13
3 98 100 101
3 101 99 98
3 102 103 99
3 99 101 102
3 103 15 14
3 14 99 103
3 22 104 105
3 105 23 22
3 104 106 107
3 107 105 104
3 100 98 105
3 105 107 100
3 98 13 23
3 23 105 98
3 51 108 109
3 109 52 51
3 108 110 111
3 111 109 108
3 112 113 109
3 109 111 112
3 113 53 52
3 52 109 113
3 4 1 114
3 114 115 4
3 1 0 85
3 85 114 1
3 87 116 114
3 114 85 87
3 116 117 115
3 115 114 116
3 91 118 119
3 119 120 91
3 118 15 103
3 103 119 118
3 102 121 119
3 119 103 102
3 121 122 120
3 120 119 121
3 30 56 123
3 123 31 30
3 56 35 33
3 33 123 56
3 17 124 123
3 123 33 17
3 124 32 31
3 31 123 124
3 30 29 125
3 125 59 30
3 29 28 72
3 72 125 29
3 74 126 125
3 125 72 74
3 126 60 59
3 59 125 126
3 32 124 127
3 127 90 32
3 124 17 16
3 16 127 124
3 15 118 127
3 127 16 15
3 118 91 90
3 90 127 118
3 53 128 129
3 129 54 53
3 128 130 131
3 131 129 128
3 132 133 129
3 129 131 132
3 133 55 54
3 54 129 133
3 60 134 135
3 135 61 60
3 134 136 137
3 137 135 134
3 138 139 135
3 135 137 138
3 139 62 61
3 61 135 139
3 82 140 141
3 141 142 82
3 140 143 144
3 144 141 140
3 145 146 141
3 141 144 145
3 146 68 142
3 142 141 146
3 55 133 147
3 147 73 55
3 133 132 148
3 148 147 133
3 149 150 147
3 147 148 149
3 150 74 73
3 73 147 150
3 62 139 151
3 151 77 62
3 139 138 152
3 152 151 139
3 153 154 151
3 151 152 153
3 154 78 77
3 77 151 154
3 78 154 155
3 155 81 78
3 154 153 156
3 156 155 154
3 143 140 155
3 155 156 143
3 140 82 81
3 81 155 140
3 117 157 158
3 158 159 117
3 157 160 161
3 161 158 157
3 162 163 158
3 158 161 162
3 163 164 159
3 159 158 163
3 70 165 166
3 166 86 70
3 165 167 168
3 168 166 165
3 169 170 166
3 166 168 169
3 170 87 86
3 86 166 170
3 87 170 171
3 171 116 87
3 170 169 172
3 172 171 170
3 160 157 171
3 171 172 160
3 157 117 116
3 116 171 157
3 74 150 173
3 173 126 74
3 150 149 174
3 174 173 150
3 136 134 173
3 173 174 136
3 134 60 126
3 126 173 134
3 6 175 176
3 176 7 6
3 175 22 19
3 19 176 175
3 18 44 176
3 176 19 18
3 44 8 7
3 7 176 44
3 46 64 177
3 177 47 46
3 64 63 83
3 83 177 64
3 0 3 177
3 177 83 0
3 3 8 47
3 47 177 3
3 46 45 178
3 178 67 46
3 45 41 80
3 80 178 45
3 82 142 178
3 178 80 82
3 142 68 67
3 67 178 142
3 145 179 180
3 180 146 145
3 179 167 165
3 165 180 179
3 70 69 180
3 180 165 70
3 69 68 146
3 146 180 69
3 110 108 181
3 181 182 110
3 108 51 89
3 89 181 108
3 91 120 181
3 181 89 91
3 120 122 182
3 182 181 120
3 94 92 183
3 183 184 94
3 92 4 115
3 115 183 92
3 117 159 183
3 183 115 117
3 159 164 184
3 184 183 159
3 185 186 187
3 187 188 185
3 186 130 128
3 128 187 186
3 53 113 187
3 187 128 53
3 113 112 188
3 188 187 113
3 106 104 189
3 189 190 106
3 104 22 175
3 175 189 104
3 6 97 189
3 189 175 6
3 97 96 190
3 190 189 97
3 191 192 193
3 193 194 191
3 192 195 196
3 196 193 192
3 197 198 193
3 193 196 197
3 198 199 194
3 194 193 198
3 200 201 202
3 202 203 200
3 201 204 205
3 205 202 201
3 206 207 202
3 202 205 206
3 207 208 203
3 203 202 207
3 209 210 211
3 211 212 209
3 210 200 203
3 203 211 210
3 208 213 211
3 211 203 208
3 213 214 212
3 212 211 213
3 215 216 217
3 217 218 215
3 216 219 220
3 220 217 216
3 221 222 217
3 217 220 221
3 222 223 218
3 218 217 222
3 204 201 224
3 224 225 204
3 201 200 226
3 226 224 201
3 227 228 224
3 224 226 227
3 228 229 225
3 225 224 228
3 200 210 230
3 230 226 200
3 210 209 231
3 231 230 210
3 232 233 230
3 230 231 232
3 233 227 226
3 226 230 233
3 209 234 235
3 235 231 209
3 234 195 236
3 236 235 234
3 237 238 235
3 235 236 237
3 238 232 231
3 231 235 238
3 215 239 240
3 240 241 215
3 239 242 243
3 243 240 239
3 244 245 240
3 240 243 244
3 245 246 241
3 241 240 245
3 229 247 248
3 248 249 229
3 247 250 251
3 251 248 247
3 252 253 248
3 248 251 252
3 253 221 249
3 249 248 253
3 254 255 256
3 256 257 254
3 255 258 259
3 259 256 255
3 260 261 256
3 256 259 260
3 261 237 257
3 257 256 261
3 223 262 263
3 263 218 223
3 262 264 265
3 265 263 262
3 242 239 263
3 263 265 242
3 239 215 218
3 218 263 239
3 227 266 267
3 267 228 227
3 266 268 269
3 269 267 266
3 250 247 267
3 267 269 250
3 247 229 228
3 228 267 247
3 232 270 271
3 271 233 232
3 270 272 273
3 273 271 270
3 268 266 271
3 271 273 268
3 266 227 233
3 233 271 266
3 191 274 275
3 275 276 191
3 274 277 278
3 278 275 274
3 258 255 275
3 275 278 258
3 255 254 276
3 276 275 255
3 246 279 280
3 280 241 246
3 279 281 282
3 282 280 279
3 219 216 280
3 280 282 219
3 216 215 241
3 241 280 216
3 199 198 283
3 283 284 199
3 198 197 285
3 285 283 198
3 96 95 283
3 283 285 96
3 95 94 284
3 284 283 95
3 208 207 286
3 286 287 208
3 207 206 288
3 288 286 207
3 102 101 286
3 286 288 102
3 101 100 287
3 287 286 101
3 214 213 289
3 289 290 214
3 213 208 287
3 287 289 213
3 100 107 289
3 289 287 100
3 107 106 290
3 290 289 107
3 246 245 291
3 291 292 246
3 245 244 293
3 293 291 245
3 112 111 291
3 291 293 112
3 111 110 292
3 292 291 111
3 199 294 295
3 295 194 199
3 294 296 297
3 297 295 294
3 277 274 295
3 295 297 277
3 274 191 194
3 194 295 274
3 281 298 299
3 299 300 281
3 298 122 121
3 121 299 298
3 102 288 299
3 299 121 102
3 288 206 300
3 300 299 288
3 221 220 301
3 301 249 221
3 220 219 302
3 302 301 220
3 204 225 301
3 301 302 204
3 225 229 249
3 249 301 225
3 221 253 303
3 303 222 221
3 253 252 304
3 304 303 253
3 264 262 303
3 303 304 264
3 262 223 222
3 222 303 262
3 219 282 305
3 305 302 219
3 282 281 300
3 300 305 282
3 206 205 305
3 305 300 206
3 205 204 302
3 302 305 205
3 244 243 306
3 306 307 244
3 243 242 308
3 308 306 243
3 309 310 306
3 306 308 309
3 310 311 307
3 307 306 310
3 252 251 312
3 312 313 252
3 251 250 314
3 314 312 251
3 315 316 312
3 312 314 315
3 316 317 313
3 313 312 316
3 272 318 319
3 319 320 272
3 318 260 321
3 321 319 318
3 322 323 319
3 319 321 322
3 323 324 320
3 320 319 323
3 242 265 325
3 325 308 242
3 265 264 326
3 326 325 265
3 327 328 325
3 325 326 327
3 328 309 308
3 308 325 328
3 250 269 329
3 329 314 250
3 269 268 330
3 330 329 269
3 331 332 329
3 329 330 331
3 332 315 314
3 314 329 332
3 268 273 333
3 333 330 268
3 273 272 320
3 320 333 273
3 324 334 333
3 333 320 324
3 334 331 330
3 330 333 334
3 296 335 336
3 336 337 296
3 335 164 163
3 163 336 335
3 162 338 336
3 336 163 162
3 338 339 337
3 337 336 338
3 258 278 340
3 340 341 258
3 278 277 342
3 342 340 278
3 343 344 340
3 340 342 343
3 344 345 341
3 341 340 344
3 277 297 346
3 346 342 277
3 297 296 337
3 337 346 297
3 339 347 346
3 346 337 339
3 347 343 342
3 342 346 347
3 264 304 348
3 348 326 264
3 304 252 313
3 313 348 304
3 317 349 348
3 348 313 317
3 349 327 326
3 326 348 349
3 197 196 350
3 350 351 197
3 196 195 234
3 234 350 196
3 209 212 350
3 350 234 209
3 212 214 351
3 351 350 212
3 237 236 352
3 352 257 237
3 236 195 192
3 192 352 236
3 191 276 352
3 352 192 191
3 276 254 257
3 257 352 276
3 237 261 353
3 353 238 237
3 261 260 318
3 318 353 261
3 272 270 353
3 353 318 272
3 270 232 238
3 238 353 270
3 322 321 354
3 354 355 322
3 321 260 259
3 259 354 321
3 258 341 354
3 354 259 258
3 341 345 355
3 355 354 341
3 110 182 356
3 356 292 110
3 182 122 298
3 298 356 182
3 281 279 356
3 356 298 281
3 279 246 292
3 292 356 279
3 94 184 357
3 357 284 94
3 184 164 335
3 335 357 184
3 296 294 357
3 357 335 296
3 294 199 284
3 284 357 294
3 185 188 358
3 358 359 185
3 188 112 293
3 293 358 188
3 244 307 358
3 358 293 244
3 307 311 359
3 359 358 307
3 106 190 360
3 360 290 106
3 190 96 285
3 285 360 190
3 197 351 360
3 360 285 197
3 351 214 290
3 290 360 351
