ply
format ascii 1.0
comment VCGLIB generated
element vertex 8
property float x
property float y
property float z
property float nx
property float ny
property float nz
element face 12
property list uchar int vertex_indices
end_header
0 0 0 -1.570796 -1.570796 -1.570796 
1 0 0 1.570796 -1.570796 -1.570796 
1 1 0 1.570796 1.570796 -1.570796 
0 1 0 -1.570796 1.570796 -1.570796 
0 0 1 -1.570796 -1.570796 1.570796 
1 0 1 1.570796 -1.570796 1.570796 
1 1 1 1.570796 1.570796 1.570796 
0 1 1 -1.570796 1.570796 1.570796 
3 1 0 2 
3 2 0 3 
3 6 7 5 
3 5 7 4 
3 4 0 5 
3 5 0 1 
3 5 1 6 
3 6 1 2 
3 6 2 7 
3 7 2 3 
3 7 3 4 
3 4 3 0 
